<svg width="20" height="20" viewBox="0 0 20 20" fill="none" xmlns="http://www.w3.org/2000/svg">
<path d="M5.45406 11.5459C5.34942 11.4413 5.2664 11.3171 5.20977 11.1803C5.15314 11.0436 5.12399 10.8971 5.12399 10.7491C5.12399 10.6011 5.15314 10.4545 5.20977 10.3178C5.2664 10.1811 5.34942 10.0568 5.45406 9.95219C5.55871 9.84754 5.68294 9.76453 5.81967 9.7079C5.9564 9.65126 6.10294 9.62211 6.25094 9.62211C6.39893 9.62211 6.54548 9.65126 6.6822 9.7079C6.81893 9.76453 6.94317 9.84754 7.04781 9.95219L8.5 11.4062L12.9541 6.95125C13.1654 6.73991 13.4521 6.62117 13.7509 6.62117C14.0498 6.62117 14.3365 6.73991 14.5478 6.95125C14.7592 7.16259 14.8779 7.44924 14.8779 7.74813C14.8779 8.04701 14.7592 8.33366 14.5478 8.545L9.29781 13.795C9.1933 13.8999 9.0691 13.9831 8.93236 14.0399C8.79561 14.0967 8.649 14.1259 8.50094 14.1259C8.35287 14.1259 8.20626 14.0967 8.06952 14.0399C7.93277 13.9831 7.80858 13.8999 7.70406 13.795L5.45406 11.5459ZM19.375 2.5V17.5C19.375 17.9973 19.1775 18.4742 18.8258 18.8258C18.4742 19.1775 17.9973 19.375 17.5 19.375H2.5C2.00272 19.375 1.52581 19.1775 1.17417 18.8258C0.822544 18.4742 0.625 17.9973 0.625 17.5V2.5C0.625 2.00272 0.822544 1.52581 1.17417 1.17417C1.52581 0.822544 2.00272 0.625 2.5 0.625H17.5C17.9973 0.625 18.4742 0.822544 18.8258 1.17417C19.1775 1.52581 19.375 2.00272 19.375 2.5ZM17.125 2.875H2.875V17.125H17.125V2.875Z" fill="#2FA500"/>
</svg>
