<svg width="25" height="25" viewBox="0 0 25 25" fill="none" xmlns="http://www.w3.org/2000/svg">
<g id="Icons/Categories">
<path id="Vector" d="M8.1776 12.0201L7.64842 11.4886L8.1776 12.0201ZM9.35024 10.8525L9.87942 10.321C9.58679 10.0297 9.1137 10.0297 8.82107 10.321L9.35024 10.8525ZM13.787 15.2701L14.3162 15.8016C14.4576 15.6608 14.537 15.4696 14.537 15.2701C14.537 15.0706 14.4576 14.8793 14.3162 14.7386L13.787 15.2701ZM12.6144 16.4376L12.0852 15.9061L12.6144 16.4376ZM4.72082 18.821C4.42729 19.1133 4.42626 19.5881 4.71852 19.8817C5.01077 20.1752 5.48565 20.1762 5.77918 19.884L4.72082 18.821ZM10.0351 11.5298C9.74158 11.8221 9.74055 12.2969 10.0328 12.5905C10.3251 12.884 10.7999 12.885 11.0935 12.5928L10.0351 11.5298ZM13.3119 10.384C13.6054 10.0918 13.6064 9.61689 13.3142 9.32336C13.0219 9.02984 12.547 9.0288 12.2535 9.32106L13.3119 10.384ZM12.0438 13.5298C11.7503 13.8221 11.7493 14.2969 12.0415 14.5905C12.3338 14.884 12.8086 14.885 13.1022 14.5928L12.0438 13.5298ZM15.2792 12.4252C15.5727 12.1329 15.5737 11.6581 15.2815 11.3645C14.9892 11.071 14.5144 11.07 14.2208 11.3622L15.2792 12.4252ZM18.8224 5.76744L19.3516 5.23596L18.8224 5.76744ZM18.8224 10.1849L18.2932 9.6535L18.8224 10.1849ZM17.6498 11.3525L17.1206 11.884C17.4132 12.1753 17.8863 12.1753 18.1789 11.884L17.6498 11.3525ZM13.213 6.93497L12.6838 6.40347C12.5424 6.54421 12.463 6.73548 12.463 6.93496C12.463 7.13444 12.5424 7.3257 12.6838 7.46645L13.213 6.93497ZM14.3856 5.76744L14.9148 6.29894V6.29892L14.3856 5.76744ZM8.70678 15.9061C7.77603 14.9794 7.77603 13.4783 8.70678 12.5515L7.64842 11.4886C6.12881 13.0016 6.12881 15.4561 7.64842 16.9691L8.70678 15.9061ZM8.70678 12.5515L9.87942 11.384L8.82107 10.321L7.64842 11.4886L8.70678 12.5515ZM12.0852 15.9061C11.1526 16.8346 9.63933 16.8346 8.70678 15.9061L7.64842 16.9691C9.16623 18.4803 11.6257 18.4803 13.1435 16.9691L12.0852 15.9061ZM13.2579 14.7386L12.0852 15.9061L13.1435 16.9691L14.3162 15.8016L13.2579 14.7386ZM7.64842 15.9061L4.72082 18.821L5.77918 19.884L8.70678 16.9691L7.64842 15.9061ZM8.82107 11.384L13.2579 15.8016L14.3162 14.7386L9.87942 10.321L8.82107 11.384ZM11.0935 12.5928L13.3119 10.384L12.2535 9.32106L10.0351 11.5298L11.0935 12.5928ZM13.1022 14.5928L15.2792 12.4252L14.2208 11.3622L12.0438 13.5298L13.1022 14.5928ZM18.2932 6.29892C19.224 7.22564 19.224 8.72678 18.2932 9.6535L19.3516 10.7164C20.8712 9.20343 20.8712 6.74898 19.3516 5.23596L18.2932 6.29892ZM18.2932 9.6535L17.1206 10.821L18.1789 11.884L19.3516 10.7164L18.2932 9.6535ZM14.9148 6.29892C15.8474 5.37041 17.3607 5.37041 18.2932 6.29892L19.3516 5.23596C17.8338 3.72473 15.3743 3.72473 13.8565 5.23596L14.9148 6.29892ZM13.7421 7.46647L14.9148 6.29894L13.8565 5.23594L12.6838 6.40347L13.7421 7.46647ZM18.1789 10.821L13.7421 6.40349L12.6838 7.46645L17.1206 11.884L18.1789 10.821Z" fill="#4B4B4B"/>
</g>
</svg>
