<svg width="25" height="25" viewBox="0 0 25 25" fill="none" xmlns="http://www.w3.org/2000/svg">
<g clip-path="url(#clip0_2002_1296)">
<path d="M21.8334 16.1025H3.83337C3.83337 17.7625 5.17337 19.1025 6.83337 19.1025H18.8334C20.4934 19.1025 21.8334 17.7625 21.8334 16.1025Z" stroke="#4B4B4B" stroke-width="1.5" stroke-linecap="round" stroke-linejoin="round"/>
<path d="M12.8334 7.10254C8.41337 7.10254 4.83337 10.6825 4.83337 15.1025V16.1025H20.8334V15.1025C20.8334 10.6825 17.2534 7.10254 12.8334 7.10254Z" stroke="#4B4B4B" stroke-width="1.5" stroke-linecap="round" stroke-linejoin="round"/>
<path d="M12.8334 7.85254C13.7999 7.85254 14.5834 7.06904 14.5834 6.10254C14.5834 5.13604 13.7999 4.35254 12.8334 4.35254C11.8669 4.35254 11.0834 5.13604 11.0834 6.10254C11.0834 7.06904 11.8669 7.85254 12.8334 7.85254Z" fill="#4B4B4B"/>
</g>
<defs>
<clipPath id="clip0_2002_1296">
<rect width="24" height="24" fill="white" transform="translate(0.833374 0.102539)"/>
</clipPath>
</defs>
</svg>
