<svg width="25" height="25" viewBox="0 0 25 25" fill="none" xmlns="http://www.w3.org/2000/svg">
<g id="Icons/Categories">
<path id="Vector" d="M20.0896 13.9727L20.822 11.2261V9.5983C20.5075 5.96404 17.4221 3.10254 13.7076 3.10254H12.4703V9.5983H7.99128L7.30134 6.55272C7.24054 6.27693 7.08766 6.03006 6.86786 5.85274C6.64806 5.67542 6.37445 5.57821 6.09204 5.57712H3.5V6.8144H6.09204L7.65702 13.7227C7.09857 13.8707 6.59271 14.172 6.19675 14.5927C5.80079 15.0134 5.53055 15.5366 5.41665 16.1029C5.30275 16.6693 5.34973 17.2563 5.55228 17.7973C5.75483 18.3383 6.10485 18.8118 6.56269 19.1642C7.02053 19.5165 7.56788 19.7336 8.14276 19.7908C8.71763 19.848 9.29704 19.7431 9.81535 19.488C10.3337 19.2328 10.7702 18.8376 11.0754 18.3471C11.3806 17.8566 11.5424 17.2904 11.5424 16.7127C11.5424 16.6083 11.5372 16.5052 11.5269 16.4034H15.579C15.5688 16.5052 15.5637 16.6083 15.5636 16.7127C15.5633 17.2612 15.709 17.8 15.9855 18.2737C16.2621 18.7474 16.6597 19.139 17.1375 19.4084C17.6153 19.6778 18.1562 19.8154 18.7047 19.8069C19.2531 19.7984 19.7895 19.6442 20.2587 19.3601C20.728 19.076 21.1132 18.6723 21.375 18.1902C21.6368 17.7082 21.7657 17.1652 21.7485 16.617C21.7313 16.0687 21.5686 15.5349 21.2771 15.0702C20.9856 14.6055 20.5757 14.2267 20.0896 13.9727ZM13.7076 4.33983C16.7394 4.33983 19.2424 6.64729 19.5524 9.5983H13.7076V4.33983ZM8.44915 18.5686C8.08208 18.5686 7.72326 18.4598 7.41805 18.2559C7.11285 18.0519 6.87497 17.7621 6.73449 17.4229C6.59402 17.0838 6.55727 16.7106 6.62888 16.3506C6.70049 15.9906 6.87725 15.6599 7.13681 15.4004C7.39637 15.1408 7.72706 14.964 8.08708 14.8924C8.44709 14.8208 8.82026 14.8576 9.15939 14.998C9.49851 15.1385 9.78837 15.3764 9.9923 15.6816C10.1962 15.9868 10.3051 16.3456 10.3051 16.7127C10.3045 17.2048 10.1088 17.6765 9.76087 18.0244C9.41294 18.3724 8.9412 18.5681 8.44915 18.5686ZM15.9797 15.1661H11.1262C10.8937 14.7641 10.5738 14.4196 10.1902 14.1578C9.80664 13.8961 9.36915 13.7239 8.91008 13.654L8.2716 10.8356H19.5847V11.0637L18.9004 13.6298C18.8193 13.6232 18.7381 13.6197 18.6568 13.6194C18.1141 13.6198 17.5811 13.7629 17.1112 14.0344C16.6413 14.3059 16.2511 14.6962 15.9797 15.1661ZM18.6568 18.5686C18.2897 18.5686 17.9309 18.4598 17.6257 18.2559C17.3205 18.0519 17.0826 17.7621 16.9421 17.4229C16.8017 17.0838 16.7649 16.7106 16.8365 16.3506C16.9081 15.9906 17.0849 15.6599 17.3444 15.4004C17.604 15.1408 17.9347 14.964 18.2947 14.8924C18.6547 14.8208 19.0279 14.8576 19.367 14.998C19.7061 15.1385 19.996 15.3764 20.1999 15.6816C20.4039 15.9868 20.5127 16.3456 20.5127 16.7127C20.5121 17.2048 20.3164 17.6765 19.9685 18.0244C19.6206 18.3724 19.1488 18.5681 18.6568 18.5686Z" fill="#4B4B4B"/>
</g>
</svg>
