<svg width="25" height="25" viewBox="0 0 25 25" fill="none" xmlns="http://www.w3.org/2000/svg">
<g id="Icons/Categories">
<path id="Vector" d="M7.16675 4.85254H7.91675C7.91675 4.43833 7.58097 4.10254 7.16675 4.10254C6.75254 4.10254 6.41675 4.43832 6.41675 4.85253L7.16675 4.85254ZM4.91675 7.35254C4.50254 7.35254 4.16675 7.68833 4.16675 8.10254C4.16675 8.51675 4.50254 8.85254 4.91675 8.85254V7.35254ZM7.16675 11.3525H6.41675C6.41675 11.7667 6.75253 12.1025 7.16675 12.1025C7.58096 12.1025 7.91675 11.7667 7.91675 11.3525H7.16675ZM9.41675 8.85254C9.83096 8.85254 10.1667 8.51675 10.1667 8.10254C10.1667 7.68833 9.83096 7.35254 9.41675 7.35254V8.85254ZM15.5 10.8173C15.3103 11.1855 15.455 11.6378 15.8232 11.8275C16.1914 12.0172 16.6437 11.8725 16.8334 11.5043L15.5 10.8173ZM20.0834 5.19603C20.2731 4.82781 20.1284 4.37552 19.7602 4.18582C19.392 3.99612 18.9397 4.14083 18.75 4.50905L20.0834 5.19603ZM17.9315 19.3525V20.1025C18.2721 20.1025 18.57 19.8729 18.6567 19.5434L17.9315 19.3525ZM6.91675 17.1789L6.55903 16.5197C6.35577 16.63 6.21476 16.8279 6.17688 17.0561C6.139 17.2842 6.20848 17.517 6.36518 17.6871L6.91675 17.1789ZM17.7664 11.4088L17.6515 12.15L17.7664 11.4088ZM14.3181 10.8742L14.433 10.133L14.3181 10.8742ZM12.2091 11.9435L11.5721 11.5476L12.2091 11.9435ZM11.5277 12.9596L10.9195 12.5207L11.5277 12.9596ZM19.2105 14.4939L19.9358 14.6848L19.2105 14.4939ZM19.3449 13.9833L18.6196 13.7923L19.3449 13.9833ZM13.122 16.1075C13.2629 15.718 13.0613 15.2881 12.6717 15.1472C12.2822 15.0063 11.8523 15.2079 11.7114 15.5975L13.122 16.1075ZM13.4613 18.6403C13.1576 18.9221 13.1399 19.3966 13.4216 19.7003C13.7033 20.0039 14.1778 20.0217 14.4815 19.74L13.4613 18.6403ZM16.122 17.1075C16.2629 16.718 16.0613 16.2881 15.6717 16.1472C15.2822 16.0063 14.8523 16.2079 14.7114 16.5975L16.122 17.1075ZM7.16675 4.85254C6.41675 4.85253 6.41675 4.85229 6.41675 4.85206C6.41675 4.852 6.41675 4.85178 6.41675 4.85166C6.41675 4.85142 6.41675 4.85123 6.41675 4.85108C6.41675 4.85079 6.41675 4.85068 6.41675 4.85077C6.41675 4.85093 6.41675 4.85185 6.41673 4.85348C6.41669 4.85675 6.4166 4.8629 6.4164 4.87173C6.41599 4.8894 6.41512 4.91772 6.41327 4.95514C6.40956 5.03018 6.40197 5.14062 6.38653 5.27438C6.35522 5.54574 6.29371 5.89431 6.17675 6.2322C5.93479 6.93118 5.56013 7.35254 4.91675 7.35254V8.85254C6.52333 8.85254 7.27367 7.6489 7.59423 6.72288C7.75851 6.24827 7.83764 5.78434 7.87664 5.44633C7.89637 5.2754 7.90636 5.13193 7.91144 5.02924C7.91398 4.97779 7.91531 4.93628 7.916 4.90635C7.91635 4.89138 7.91653 4.87927 7.91663 4.87024C7.91668 4.86573 7.91671 4.86198 7.91673 4.85902C7.91674 4.85755 7.91674 4.85626 7.91675 4.85518C7.91675 4.85464 7.91675 4.85415 7.91675 4.85371C7.91675 4.85349 7.91675 4.8532 7.91675 4.85309C7.91675 4.85281 7.91675 4.85255 7.16675 4.85254ZM4.91675 8.85254C5.56017 8.85254 5.93483 9.27391 6.17677 9.97287C6.29373 10.3107 6.35523 10.6593 6.38654 10.9306C6.40197 11.0644 6.40956 11.1748 6.41327 11.2499C6.41512 11.2873 6.41599 11.3156 6.4164 11.3333C6.4166 11.3421 6.41669 11.3483 6.41673 11.3515C6.41675 11.3532 6.41675 11.3541 6.41675 11.3543C6.41675 11.3543 6.41675 11.3542 6.41675 11.3539C6.41675 11.3538 6.41675 11.3536 6.41675 11.3534C6.41675 11.3532 6.41675 11.353 6.41675 11.353C6.41675 11.3527 6.41675 11.3525 7.16675 11.3525C7.91675 11.3525 7.91675 11.3522 7.91675 11.352C7.91675 11.3519 7.91675 11.3516 7.91675 11.3513C7.91675 11.3509 7.91675 11.3504 7.91675 11.3499C7.91674 11.3488 7.91674 11.3475 7.91673 11.346C7.91671 11.3431 7.91668 11.3393 7.91663 11.3348C7.91653 11.3258 7.91635 11.3137 7.916 11.2987C7.91531 11.2688 7.91399 11.2273 7.91144 11.1758C7.90636 11.0731 7.89638 10.9297 7.87666 10.7587C7.83766 10.4207 7.75854 9.95682 7.59425 9.48221C7.27371 8.55617 6.52336 7.35254 4.91675 7.35254V8.85254ZM7.16675 11.3525C7.91675 11.3525 7.91675 11.3527 7.91675 11.353C7.91675 11.353 7.91675 11.3532 7.91675 11.3534C7.91675 11.3536 7.91675 11.3538 7.91675 11.354C7.91675 11.3542 7.91675 11.3543 7.91675 11.3543C7.91675 11.3541 7.91675 11.3532 7.91677 11.3516C7.91681 11.3483 7.9169 11.3421 7.9171 11.3333C7.91751 11.3156 7.91838 11.2873 7.92023 11.2499C7.92394 11.1749 7.93153 11.0644 7.94696 10.9307C7.97827 10.6593 8.03978 10.3107 8.15674 9.97287C8.39869 9.2739 8.77335 8.85254 9.41675 8.85254V7.35254C7.81015 7.35254 7.05981 8.55618 6.73926 9.48221C6.57497 9.95681 6.49585 10.4207 6.45685 10.7587C6.43713 10.9296 6.42714 11.0731 6.42206 11.1758C6.41952 11.2273 6.41819 11.2688 6.4175 11.2987C6.41715 11.3137 6.41697 11.3258 6.41686 11.3348C6.41681 11.3393 6.41679 11.3431 6.41677 11.346C6.41676 11.3475 6.41676 11.3488 6.41675 11.3499C6.41675 11.3504 6.41675 11.3509 6.41675 11.3513C6.41675 11.3516 6.41675 11.3518 6.41675 11.352C6.41675 11.3522 6.41675 11.3525 7.16675 11.3525ZM9.41675 7.35254C8.77335 7.35254 8.39869 6.93118 8.15674 6.23221C8.03978 5.89431 7.97827 5.54575 7.94696 5.27438C7.93153 5.14063 7.92394 5.03018 7.92023 4.95515C7.91838 4.91773 7.91751 4.88941 7.9171 4.87174C7.9169 4.86291 7.91681 4.85676 7.91677 4.85349C7.91675 4.85185 7.91675 4.85094 7.91675 4.85077C7.91675 4.85069 7.91675 4.85079 7.91675 4.85109C7.91675 4.85123 7.91675 4.85143 7.91675 4.85167C7.91675 4.85179 7.91675 4.85201 7.91675 4.85207C7.91675 4.8523 7.91675 4.85254 7.16675 4.85254C6.41675 4.85254 6.41675 4.85281 6.41675 4.85309C6.41675 4.85319 6.41675 4.85349 6.41675 4.85371C6.41675 4.85415 6.41675 4.85464 6.41675 4.85518C6.41676 4.85626 6.41676 4.85754 6.41677 4.85902C6.41679 4.86197 6.41681 4.86572 6.41686 4.87024C6.41697 4.87927 6.41715 4.89137 6.4175 4.90634C6.41819 4.93627 6.41952 4.97778 6.42206 5.02923C6.42714 5.13193 6.43713 5.27539 6.45685 5.44632C6.49585 5.78433 6.57497 6.24827 6.73926 6.72287C7.05981 7.6489 7.81015 8.85254 9.41675 8.85254V7.35254ZM16.8334 11.5043L20.0834 5.19603L18.75 4.50905L15.5 10.8173L16.8334 11.5043ZM17.8813 10.6677L14.433 10.133L14.2032 11.6153L17.6515 12.15L17.8813 10.6677ZM11.5721 11.5476C11.3908 11.8394 11.1732 12.1692 10.9195 12.5207L12.1358 13.3985C12.4117 13.0162 12.6484 12.6574 12.8461 12.3395L11.5721 11.5476ZM10.9195 12.5207C9.95518 13.8569 8.49691 15.4681 6.55903 16.5197L7.27447 17.8381C9.4844 16.6389 11.1 14.8337 12.1358 13.3985L10.9195 12.5207ZM18.6567 19.5434L19.9358 14.6848L18.4852 14.303L17.2062 19.1616L18.6567 19.5434ZM19.9358 14.6848L20.0702 14.1742L18.6196 13.7923L18.4852 14.303L19.9358 14.6848ZM14.433 10.133C13.249 9.9495 12.1599 10.602 11.5721 11.5476L12.8461 12.3395C13.1818 11.7993 13.7271 11.5415 14.2032 11.6153L14.433 10.133ZM17.6515 12.15C18.3185 12.2534 18.8304 12.9917 18.6196 13.7923L20.0702 14.1742C20.4846 12.6001 19.5142 10.9209 17.8813 10.6677L17.6515 12.15ZM11.3808 13.6951L19.0636 15.2294L19.3574 13.7584L11.6745 12.2241L11.3808 13.6951ZM17.9315 18.6025C14.3772 18.6025 11.9578 18.2598 10.347 17.8608L9.98641 19.3168C11.7399 19.7512 14.2842 20.1025 17.9315 20.1025V18.6025ZM10.347 17.8608C9.13753 17.5612 8.38775 17.2307 7.95634 16.9925C7.74068 16.8734 7.6042 16.7771 7.52912 16.7188C7.49154 16.6896 7.46918 16.6698 7.45984 16.6612C7.45516 16.657 7.45371 16.6554 7.45522 16.657C7.45598 16.6577 7.45747 16.6592 7.45966 16.6615C7.46076 16.6626 7.46204 16.664 7.46348 16.6655C7.4642 16.6663 7.46497 16.6671 7.46577 16.668C7.46618 16.6684 7.46659 16.6688 7.46702 16.6693C7.46723 16.6695 7.46755 16.6699 7.46766 16.67C7.46799 16.6704 7.46832 16.6707 6.91675 17.1789C6.36518 17.6871 6.36552 17.6875 6.36586 17.6879C6.36597 17.688 6.36632 17.6883 6.36655 17.6886C6.36702 17.6891 6.3675 17.6896 6.36799 17.6902C6.36898 17.6912 6.37001 17.6923 6.37109 17.6935C6.37324 17.6958 6.37559 17.6982 6.37813 17.7009C6.38321 17.7062 6.38907 17.7121 6.39573 17.7188C6.40905 17.7321 6.42559 17.748 6.44559 17.7664C6.4856 17.8031 6.5394 17.8494 6.60902 17.9035C6.74832 18.0117 6.95035 18.1505 7.2312 18.3056C7.79279 18.6157 8.66801 18.9902 9.98641 19.3168L10.347 17.8608ZM10.1667 18.5888C10.6065 19.1963 10.6067 19.1962 10.6068 19.1961C10.6069 19.1961 10.607 19.196 10.6071 19.1959C10.6073 19.1957 10.6076 19.1955 10.6079 19.1953C10.6084 19.1949 10.6091 19.1945 10.6098 19.1939C10.6113 19.1928 10.6132 19.1914 10.6156 19.1897C10.6202 19.1863 10.6265 19.1817 10.6342 19.1759C10.6498 19.1643 10.6714 19.148 10.6984 19.1272C10.7524 19.0857 10.8282 19.026 10.9198 18.9503C11.1027 18.7991 11.3517 18.5814 11.6196 18.3125C12.1416 17.7885 12.7953 17.0111 13.122 16.1075L11.7114 15.5975C11.4957 16.1939 11.0243 16.7847 10.557 17.2538C10.3302 17.4814 10.1185 17.6666 9.96418 17.7941C9.8873 17.8577 9.82537 17.9064 9.78388 17.9383C9.76315 17.9542 9.74757 17.966 9.73784 17.9732C9.73297 17.9768 9.72957 17.9794 9.72772 17.9807C9.7268 17.9814 9.72626 17.9818 9.72612 17.9819C9.72605 17.9819 9.72609 17.9819 9.72622 17.9818C9.72629 17.9818 9.72638 17.9817 9.72649 17.9816C9.72655 17.9816 9.72666 17.9815 9.72669 17.9815C9.7268 17.9814 9.72692 17.9813 10.1667 18.5888ZM13.9714 19.1902C14.4815 19.74 14.4817 19.7398 14.4818 19.7397C14.4819 19.7396 14.4821 19.7395 14.4822 19.7394C14.4824 19.7391 14.4827 19.7389 14.4829 19.7386C14.4835 19.7381 14.4841 19.7376 14.4847 19.737C14.486 19.7358 14.4875 19.7344 14.4892 19.7327C14.4927 19.7295 14.497 19.7253 14.5021 19.7204C14.5124 19.7105 14.526 19.6973 14.5425 19.6807C14.5755 19.6476 14.6204 19.6011 14.6748 19.5416C14.7833 19.4228 14.9299 19.2513 15.0937 19.0298C15.4205 18.5878 15.8211 17.9397 16.122 17.1075L14.7114 16.5975C14.4699 17.2653 14.1478 17.786 13.8876 18.1379C13.7579 18.3133 13.6449 18.445 13.5671 18.5301C13.5283 18.5726 13.4985 18.6033 13.48 18.6218C13.4708 18.6311 13.4644 18.6373 13.4612 18.6404C13.4596 18.6419 13.4588 18.6427 13.4588 18.6427C13.4588 18.6427 13.459 18.6425 13.4594 18.6421C13.4596 18.6419 13.4599 18.6417 13.4602 18.6414C13.4603 18.6412 13.4605 18.6411 13.4607 18.6409C13.4608 18.6408 13.4609 18.6407 13.461 18.6406C13.4611 18.6405 13.4613 18.6403 13.9714 19.1902Z" fill="#4B4B4B"/>
</g>
</svg>
