<svg width="25" height="25" viewBox="0 0 25 25" fill="none" xmlns="http://www.w3.org/2000/svg">
<g clip-path="url(#clip0_2019_1567)">
<path d="M20.5 7.09984V8.77011H5.5V7.09984C5.5 5.71335 6.61891 4.60254 7.99729 4.60254H17.9946C19.3811 4.60254 20.5 5.72146 20.5 7.09984Z" stroke="#4B4B4B" stroke-width="1.21622" stroke-linecap="round" stroke-linejoin="round"/>
<path d="M20.5002 8.77015V17.1053C20.5002 18.4918 19.3813 19.6026 18.0029 19.6026H8.00559C6.6191 19.6026 5.5083 18.4837 5.5083 17.1053V8.77015H20.5002Z" stroke="#4B4B4B" stroke-width="1.21622" stroke-linecap="round" stroke-linejoin="round"/>
<path d="M11.3296 6.68634H12.1647" stroke="#4B4B4B" stroke-width="1.21622" stroke-linecap="round" stroke-linejoin="round"/>
<path d="M7.99756 6.68634H8.83269" stroke="#4B4B4B" stroke-width="1.21622" stroke-linecap="round" stroke-linejoin="round"/>
<path d="M12.9997 17.1052C14.6118 17.1052 15.9187 15.7983 15.9187 14.1863C15.9187 12.5742 14.6118 11.2673 12.9997 11.2673C11.3877 11.2673 10.0808 12.5742 10.0808 14.1863C10.0808 15.7983 11.3877 17.1052 12.9997 17.1052Z" stroke="#4B4B4B" stroke-width="1.21622" stroke-linecap="round" stroke-linejoin="round"/>
<path d="M10.5024 14.4377C10.7457 14.535 11.0376 14.608 11.4511 14.608C12.8781 14.608 12.8781 13.7728 14.3132 13.7728C14.8727 13.7728 15.2132 13.9026 15.5051 14.0566" stroke="#4B4B4B" stroke-width="1.21622" stroke-linecap="round" stroke-linejoin="round"/>
</g>
<defs>
<clipPath id="clip0_2019_1567">
<rect width="24" height="24" fill="white" transform="translate(0.5 0.102539)"/>
</clipPath>
</defs>
</svg>
