<svg width="25" height="25" viewBox="0 0 25 25" fill="none" xmlns="http://www.w3.org/2000/svg">
<g id="Icons/Categories">
<path id="Vector" d="M19.6994 14.3525L20.0464 12.1655C20.4734 8.25054 17.1234 4.85254 12.8334 4.85254C8.54337 4.85254 5.19337 8.25054 5.62037 12.1655L5.96737 14.3525M9.27537 19.1565L8.74937 19.2845C7.58737 19.5685 6.39237 18.9395 6.08137 17.8815L5.65837 16.4445C5.34637 15.3865 6.03637 14.2985 7.19837 14.0145L7.72537 13.8865C8.30537 13.7445 8.90337 14.0585 9.05937 14.5875L10.0464 17.9415C10.2014 18.4705 9.85637 19.0145 9.27637 19.1565H9.27537ZM16.3914 19.1565L16.9174 19.2845C18.0794 19.5685 19.2744 18.9395 19.5854 17.8815L20.0084 16.4445C20.3204 15.3865 19.6304 14.2985 18.4684 14.0145L17.9414 13.8865C17.3614 13.7445 16.7634 14.0585 16.6074 14.5875L15.6204 17.9415C15.4654 18.4705 15.8104 19.0145 16.3904 19.1565H16.3914Z" stroke="#4B4B4B" stroke-width="1.5" stroke-linecap="round" stroke-linejoin="round"/>
</g>
</svg>
