<svg width="25" height="25" viewBox="0 0 25 25" fill="none" xmlns="http://www.w3.org/2000/svg">
<g id="Icons/Categories">
<path id="Vector" d="M14.6311 9.05232C14.2406 8.6618 14.2406 8.02863 14.6311 7.63811L17.0014 5.26786C16.446 5.00164 15.8238 4.85254 15.1667 4.85254C12.8195 4.85254 10.9167 6.75533 10.9167 9.10254C10.9167 9.75959 11.0658 10.3818 11.332 10.9372L5.33072 16.9384C4.77843 17.4907 4.77843 18.3862 5.33072 18.9384C5.883 19.4907 6.77843 19.4907 7.33072 18.9384L13.332 12.9372C13.8874 13.2034 14.5097 13.3525 15.1667 13.3525C17.5139 13.3525 19.4167 11.4497 19.4167 9.10254C19.4167 8.45381 19.2714 7.83903 19.0115 7.28899L16.6467 9.6537C16.2562 10.0442 15.623 10.0442 15.2325 9.65371L14.6311 9.05232Z" stroke="#4B4B4B" stroke-width="1.5" stroke-linecap="round" stroke-linejoin="round"/>
</g>
</svg>
