<svg width="25" height="25" viewBox="0 0 25 25" fill="none" xmlns="http://www.w3.org/2000/svg">
<g id="Icons/Categories">
<path id="Vector" d="M15.0834 14.3525C15.0834 11.6025 14.2334 9.85254 10.8334 9.85254C7.43337 9.85254 6.58337 11.6025 6.58337 14.3525H8.58337V17.3525C8.58337 17.883 8.79409 18.3917 9.16916 18.7668C9.54423 19.1418 10.0529 19.3525 10.5834 19.3525H13.0834M15.0834 14.3525H13.0834V19.3525M15.0834 14.3525H19.0834V19.3525H13.0834M13.0834 7.10254C13.0834 7.39801 13.0252 7.69059 12.9121 7.96358C12.799 8.23656 12.6333 8.4846 12.4244 8.69353C12.2154 8.90246 11.9674 9.06819 11.6944 9.18127C11.4214 9.29434 11.1288 9.35254 10.8334 9.35254C10.5379 9.35254 10.2453 9.29434 9.97234 9.18127C9.69935 9.06819 9.45132 8.90246 9.24238 8.69353C9.03345 8.4846 8.86772 8.23656 8.75464 7.96358C8.64157 7.69059 8.58337 7.39801 8.58337 7.10254C8.58337 6.5058 8.82043 5.93351 9.24238 5.51155C9.66434 5.08959 10.2366 4.85254 10.8334 4.85254C11.4301 4.85254 12.0024 5.08959 12.4244 5.51155C12.8463 5.93351 13.0834 6.5058 13.0834 7.10254V7.10254Z" stroke="#4B4B4B" stroke-width="1.5" stroke-linecap="round" stroke-linejoin="round"/>
</g>
</svg>
