<svg width="25" height="25" viewBox="0 0 25 25" fill="none" xmlns="http://www.w3.org/2000/svg">
<g id="Icons/Categories">
<path id="Vector" d="M12.5 13.8525V16.3525M12.5 16.3525C10.5 16.3525 9.25 14.8525 9.25 14.8525M12.5 16.3525C14.5 16.3525 15.75 14.8525 15.75 14.8525M6.15249 9.36497L5.25 4.85254L9.42438 6.52229C10.3581 6.11555 11.4004 5.88825 12.5 5.88825C13.5996 5.88825 14.6419 6.11555 15.5756 6.52229L19.75 4.85254L18.8475 9.36497C19.4226 10.3297 19.75 11.4395 19.75 12.6204C19.75 16.3384 16.5041 19.3525 12.5 19.3525C8.49594 19.3525 5.25 16.3384 5.25 12.6204C5.25 11.4395 5.57739 10.3297 6.15249 9.36497Z" stroke="#4B4B4B" stroke-width="1.5" stroke-linecap="round" stroke-linejoin="round"/>
<path id="Vector_2" d="M11 11.1025C11 11.3786 10.7761 11.6025 10.5 11.6025C10.2239 11.6025 10 11.3786 10 11.1025C10 10.8264 10.2239 10.6025 10.5 10.6025C10.7761 10.6025 11 10.8264 11 11.1025Z" stroke="#4B4B4B" stroke-linecap="round" stroke-linejoin="round"/>
<path id="Vector_3" d="M15 11.1025C15 11.3786 14.7761 11.6025 14.5 11.6025C14.2239 11.6025 14 11.3786 14 11.1025C14 10.8264 14.2239 10.6025 14.5 10.6025C14.7761 10.6025 15 10.8264 15 11.1025Z" stroke="#4B4B4B" stroke-linecap="round" stroke-linejoin="round"/>
</g>
</svg>
