<svg width="22" height="20" viewBox="0 0 22 20" fill="none" xmlns="http://www.w3.org/2000/svg">
<g id="Group">
<path id="Vector" d="M1.1665 1.10254H2.1665C2.69694 1.10254 3.20564 1.31325 3.58072 1.68833C3.95579 2.0634 4.1665 2.57211 4.1665 3.10254V13.1025C4.1665 13.633 4.37722 14.1417 4.75229 14.5168C5.12736 14.8918 5.63607 15.1025 6.1665 15.1025H21.1665" stroke="#4B4B4B" stroke-width="1.5" stroke-linecap="round" stroke-linejoin="round"/>
<path id="Vector_2" d="M15.1665 4.10254H11.1665C9.50965 4.10254 8.1665 5.44568 8.1665 7.10254V9.10254C8.1665 10.7594 9.50965 12.1025 11.1665 12.1025H15.1665C16.8234 12.1025 18.1665 10.7594 18.1665 9.10254V7.10254C18.1665 5.44568 16.8234 4.10254 15.1665 4.10254Z" stroke="#4B4B4B" stroke-width="1.5" stroke-linecap="round" stroke-linejoin="round"/>
<path id="Vector_3" d="M8.1665 19.1025C9.27107 19.1025 10.1665 18.2071 10.1665 17.1025C10.1665 15.998 9.27107 15.1025 8.1665 15.1025C7.06193 15.1025 6.1665 15.998 6.1665 17.1025C6.1665 18.2071 7.06193 19.1025 8.1665 19.1025Z" stroke="#4B4B4B" stroke-width="1.5" stroke-linecap="round" stroke-linejoin="round"/>
<path id="Vector_4" d="M17.1665 19.1025C18.2711 19.1025 19.1665 18.2071 19.1665 17.1025C19.1665 15.998 18.2711 15.1025 17.1665 15.1025C16.0619 15.1025 15.1665 15.998 15.1665 17.1025C15.1665 18.2071 16.0619 19.1025 17.1665 19.1025Z" stroke="#4B4B4B" stroke-width="1.5" stroke-linecap="round" stroke-linejoin="round"/>
</g>
</svg>
