<svg width="25" height="25" viewBox="0 0 25 25" fill="none" xmlns="http://www.w3.org/2000/svg">
<g id="Icons/Categories">
<path id="Vector" d="M15.75 15.3525H5.24976V4.85254H15.75V15.3525Z" stroke="#4B4B4B" stroke-width="1.5" stroke-linecap="round" stroke-linejoin="round"/>
<path id="Vector_2" d="M9.74976 17.6025C9.74976 18.569 8.96626 19.3525 7.99976 19.3525C7.03326 19.3525 6.24976 18.569 6.24976 17.6025C6.24976 16.636 7.03326 15.8525 7.99976 15.8525C8.96626 15.8525 9.74976 16.636 9.74976 17.6025Z" stroke="#4B4B4B" stroke-width="1.5" stroke-linecap="round" stroke-linejoin="round"/>
<path id="Vector_3" d="M18.7498 17.6025C18.7498 18.569 17.9663 19.3525 16.9998 19.3525C16.0333 19.3525 15.2498 18.569 15.2498 17.6025C15.2498 16.636 16.0333 15.8525 16.9998 15.8525C17.9663 15.8525 18.7498 16.636 18.7498 17.6025Z" stroke="#4B4B4B" stroke-width="1.5" stroke-linecap="round" stroke-linejoin="round"/>
<path id="Vector_4" d="M19.75 15.3525H15.7498V8.85254H16.75C18.4069 8.85254 19.75 10.1956 19.75 11.8525V15.3525Z" stroke="#4B4B4B" stroke-width="1.5" stroke-linecap="round" stroke-linejoin="round"/>
</g>
</svg>
