<svg width="25" height="25" viewBox="0 0 25 25" fill="none" xmlns="http://www.w3.org/2000/svg">
<g id="Icons/Categories">
<path id="Vector" d="M6.58325 6.85254C6.58325 5.74797 7.47868 4.85254 8.58325 4.85254H17.0833C18.1879 4.85254 19.0833 5.74797 19.0833 6.85254V16.3525C19.0833 16.9048 18.6356 17.3525 18.0833 17.3525H7.58325C7.03097 17.3525 6.58325 16.9048 6.58325 16.3525V6.85254Z" stroke="#4B4B4B" stroke-width="1.5" stroke-linecap="round" stroke-linejoin="round"/>
<path id="Vector_2" d="M6.33325 10.3525C5.91904 10.3525 5.58325 10.0167 5.58325 9.60254C5.58325 9.18833 5.91904 8.85254 6.33325 8.85254" stroke="#4B4B4B" stroke-width="1.5" stroke-linecap="round" stroke-linejoin="round"/>
<path id="Vector_3" d="M19.3333 10.3525C19.7475 10.3525 20.0833 10.0167 20.0833 9.60254C20.0833 9.18833 19.7475 8.85254 19.3333 8.85254" stroke="#4B4B4B" stroke-width="1.5" stroke-linecap="round" stroke-linejoin="round"/>
<path id="Vector_4" d="M8.58325 18.1025V19.3525" stroke="#4B4B4B" stroke-width="1.5" stroke-linecap="round" stroke-linejoin="round"/>
<path id="Vector_5" d="M17.0833 18.1025V19.3525" stroke="#4B4B4B" stroke-width="1.5" stroke-linecap="round" stroke-linejoin="round"/>
<path id="Vector_6" d="M6.83325 11.3525H18.8333" stroke="#4B4B4B" stroke-width="1.5" stroke-linecap="round" stroke-linejoin="round"/>
<path id="Vector_7" d="M12.8333 11.3525V5.10254" stroke="#4B4B4B" stroke-width="1.5" stroke-linecap="round" stroke-linejoin="round"/>
<path id="Vector_8" d="M10.3333 14.1025C10.3333 14.3786 10.1094 14.6025 9.83325 14.6025C9.55711 14.6025 9.33325 14.3786 9.33325 14.1025C9.33325 13.8264 9.55711 13.6025 9.83325 13.6025C10.1094 13.6025 10.3333 13.8264 10.3333 14.1025Z" stroke="#4B4B4B" stroke-linecap="round" stroke-linejoin="round"/>
<path id="Vector_9" d="M16.3333 14.1025C16.3333 14.3786 16.1094 14.6025 15.8333 14.6025C15.5572 14.6025 15.3333 14.3786 15.3333 14.1025C15.3333 13.8264 15.5572 13.6025 15.8333 13.6025C16.1094 13.6025 16.3333 13.8264 16.3333 14.1025Z" stroke="#4B4B4B" stroke-linecap="round" stroke-linejoin="round"/>
</g>
</svg>
